<?xml version="1.0" encoding="UTF-8"?>
<!DOCTYPE svg PUBLIC "-//W3C//DTD SVG 1.0//EN" "http://www.w3.org/TR/2001/REC-SVG-20010904/DTD/svg10.dtd">
<!-- Creator: CorelDRAW 2019 (64-Bit) -->
<?xml-stylesheet href="Already Constructed.css" type="text/css"?>
<svg xmlns="http://www.w3.org/2000/svg" xml:space="preserve" width="1.24966in" height="1.24966in" version="1.0" style="shape-rendering:geometricPrecision; text-rendering:geometricPrecision; image-rendering:optimizeQuality; fill-rule:evenodd; clip-rule:evenodd"
viewBox="0 0 26.6 26.6"
 xmlns:xlink="http://www.w3.org/1999/xlink"
 xmlns:xodm="http://www.corel.com/coreldraw/odm/2003">
 <g id="Layer_x0020_1">
  <metadata id="CorelCorpID_0Corel-Layer"/>
  <g id="_2029188796288">
   <path class="fil0" d="M4.42 0.47l0 25.25 -4 0c-0.25,0 -0.39,0.17 -0.42,0.37l0 0.15c0.03,0.19 0.17,0.37 0.41,0.37l25.77 0c0.25,-0 0.39,-0.17 0.41,-0.37l0 -0.15c-0.03,-0.19 -0.17,-0.37 -0.42,-0.37l-2.65 0 0 -14.39c0,-0.29 -0.1,-0.68 -0.36,-0.68l-6.29 0 0 -10.03c0,-0.33 -0.14,-0.62 -0.46,-0.62l-11.64 0c-0.17,0 -0.36,0.27 -0.36,0.47zm0.74 0.27l0 25.13 17.65 0 0 -14.48 -6.65 0 0 -10.65 -11 0z"/>
   <g>
    <path class="fil0" d="M18.65 17.77l1.71 0 0 1.71 -1.71 0 0 -1.71zm-0.94 -0.47c0,0.58 -0.1,2.71 0.12,2.95 0.07,0.08 0.26,0.17 0.4,0.17l2.55 0c0.29,0 0.52,-0.23 0.52,-0.52l0 -2.49c0,-0.32 -0.15,-0.57 -0.47,-0.57l-2.65 0c-0.26,0 -0.47,0.21 -0.47,0.47z"/>
    <path class="fil0" d="M12 7.12l1.71 0 0 1.71 -1.71 0 0 -1.71zm-0.94 -0.36l0 2.55c0,0.26 0.21,0.47 0.47,0.47l2.65 0c0.32,0 0.47,-0.25 0.47,-0.57l0 -2.49c0,-0.29 -0.23,-0.52 -0.52,-0.52l-2.55 0c-0.32,0 -0.52,0.21 -0.52,0.57z"/>
    <path class="fil0" d="M12 2.65l1.71 0 0 1.77 -1.71 0 0 -1.77zm-0.94 -0.42l0 2.6c0,0.35 0.26,0.52 0.62,0.52l2.34 0c0.36,0 0.62,-0.17 0.62,-0.52l0 -2.49c0,-0.32 -0.15,-0.57 -0.47,-0.57l-2.65 0c-0.26,0 -0.47,0.21 -0.47,0.47z"/>
    <path class="fil0" d="M18.65 22.18l1.71 0 0 1.77 -1.71 0 0 -1.77zm-0.94 -0.42l0 2.6c0,0.26 0.21,0.47 0.47,0.47l2.65 0c0.32,0 0.47,-0.25 0.47,-0.57l0 -2.49c0,-0.35 -0.26,-0.52 -0.62,-0.52l-2.34 0c-0.36,0 -0.62,0.17 -0.62,0.52z"/>
    <path class="fil0" d="M14.18 17.77l1.77 0 0 1.71 -1.77 0 0 -1.71zm-0.88 -0.57l0 2.86c0,0.22 0.32,0.36 0.57,0.36l2.39 0c0.48,0 0.62,-0.25 0.62,-0.73l0 -2.23c0,-0.36 -0.17,-0.62 -0.52,-0.62l-2.6 0c-0.21,0 -0.47,0.17 -0.47,0.36z"/>
    <path class="fil0" d="M7.53 7.12l1.77 0 0 1.71 -1.77 0 0 -1.71zm-0.88 -0.57l0 2.86c0,0.19 0.25,0.36 0.47,0.36l2.6 0c0.35,0 0.52,-0.26 0.52,-0.62l0 -2.23c0,-0.48 -0.14,-0.73 -0.62,-0.73l-2.39 0c-0.25,0 -0.57,0.14 -0.57,0.36z"/>
    <path class="fil0" d="M7.53 2.81c0,-0.12 0.04,-0.16 0.16,-0.16l1.61 0 0 1.77 -1.77 0 0 -1.61zm-0.88 -0.68l0 2.75c0,0.37 0.3,0.47 0.68,0.47l2.29 0c0.46,0 0.62,-0.26 0.62,-0.73l0 -2.23c0,-0.33 -0.14,-0.62 -0.47,-0.62l-2.75 0c-0.14,0 -0.36,0.22 -0.36,0.36z"/>
    <path class="fil0" d="M7.53 16.1c0,-0.12 0.04,-0.16 0.16,-0.16l1.61 0 0 1.77 -1.77 0 0 -1.61zm-0.88 -0.68l0 2.75c0,0.37 0.3,0.47 0.68,0.47l2.29 0c0.46,0 0.62,-0.26 0.62,-0.73l0 -2.23c0,-0.33 -0.14,-0.62 -0.47,-0.62l-2.75 0c-0.14,0 -0.36,0.22 -0.36,0.36z"/>
    <path class="fil0" d="M14.18 23.79l0 -1.61 1.77 0 0 1.77 -1.61 0c-0.12,0 -0.16,-0.04 -0.16,-0.16zm-0.88 -2.08l0 2.75c0,0.14 0.22,0.36 0.36,0.36l2.75 0c0.33,0 0.47,-0.3 0.47,-0.62l0 -2.23c0,-0.46 -0.16,-0.73 -0.62,-0.73l-2.29 0c-0.37,0 -0.68,0.1 -0.68,0.47z"/>
    <path class="fil0" d="M18.65 13.3l1.71 0 0 1.77 -1.71 0 0 -1.77zm-0.94 -0.42l0 2.6c0,0.21 0.17,0.47 0.36,0.47l2.86 0c0.19,0 0.36,-0.25 0.36,-0.47l0 -2.6c0,-0.2 -0.2,-0.47 -0.36,-0.47l-2.86 0c-0.19,0 -0.36,0.25 -0.36,0.47z"/>
    <path class="fil0" d="M7.53 11.53l1.77 0 0 1.77 -1.77 0 0 -1.77zm-0.88 -0.47l0 2.7c0,0.25 0.16,0.42 0.42,0.42l2.7 0c0.33,0 0.47,-0.3 0.47,-0.62l0 -2.23c0,-0.29 -0.1,-0.68 -0.36,-0.68l-2.81 0c-0.25,0 -0.42,0.16 -0.42,0.42z"/>
    <path class="fil0" d="M14.18 13.3l1.77 0 0 1.77 -1.77 0 0 -1.77zm-0.88 -0.47l0 2.7c0,0.25 0.16,0.42 0.42,0.42l2.81 0c0.26,0 0.36,-0.38 0.36,-0.68l0 -2.23c0,-0.33 -0.14,-0.62 -0.47,-0.62l-2.7 0c-0.25,0 -0.42,0.16 -0.42,0.42z"/>
   </g>
   <polygon class="fil0" points="11.91,10.65 12.21,10.65 19.01,10.65 19.01,11.39 12.21,11.39 12.21,26.18 11.47,26.18 11.47,10.65 "/>
   <path class="fil0" d="M7.53 21.75c0,-0.12 0.04,-0.16 0.16,-0.16l1.61 0 0 4.59 0.94 0 0 -4.85c0,-0.33 -0.14,-0.62 -0.47,-0.62l-2.75 0c-0.14,0 -0.36,0.22 -0.36,0.36l0 5.11 0.88 0 0 -4.44z"/>
  </g>
 </g>
</svg>
