<?xml version="1.0" encoding="UTF-8"?>
<!DOCTYPE svg PUBLIC "-//W3C//DTD SVG 1.0//EN" "http://www.w3.org/TR/2001/REC-SVG-20010904/DTD/svg10.dtd">
<!-- Creator: CorelDRAW 2019 (64-Bit) -->
<?xml-stylesheet href="Happy Customers.css" type="text/css"?>
<svg xmlns="http://www.w3.org/2000/svg" xml:space="preserve" width="0.850661in" height="0.850661in" version="1.0" style="shape-rendering:geometricPrecision; text-rendering:geometricPrecision; image-rendering:optimizeQuality; fill-rule:evenodd; clip-rule:evenodd"
viewBox="0 0 10.64 10.64"
 xmlns:xlink="http://www.w3.org/1999/xlink"
 xmlns:xodm="http://www.corel.com/coreldraw/odm/2003">
 <g id="Layer_x0020_1">
  <metadata id="CorelCorpID_0Corel-Layer"/>
  <g id="_2029188779040">
   <path class="fil0" d="M0.62 5.32c0,-0.16 0.02,-0.39 0.04,-0.54 0.11,-0.97 0.46,-1.72 1.05,-2.46 0.44,-0.55 1.04,-0.97 1.68,-1.27 1.16,-0.56 2.7,-0.56 3.85,0 0.08,0.04 0.13,0.05 0.2,0.09 0.2,0.11 0.34,0.19 0.54,0.33 0.13,0.09 0.21,0.16 0.33,0.25 0.07,0.06 0.09,0.07 0.15,0.14 0.14,0.14 0.09,0.06 0.23,0.23 0.21,0.24 0.21,0.21 0.46,0.56 0.44,0.62 0.73,1.36 0.81,2.12 0.09,0.84 -0.02,1.73 -0.38,2.49 -0.29,0.6 -0.43,0.8 -0.88,1.3 -0.04,0.04 -0.04,0.06 -0.07,0.09l-0.64 0.53c-0.62,0.44 -1.36,0.73 -2.12,0.81 -0.57,0.06 -1.05,0.05 -1.6,-0.08 -0.78,-0.18 -1.34,-0.48 -1.96,-0.97 -0.55,-0.44 -0.97,-1.04 -1.27,-1.68 -0.13,-0.27 -0.22,-0.56 -0.29,-0.87 -0.04,-0.17 -0.07,-0.31 -0.09,-0.49 -0.02,-0.16 -0.04,-0.39 -0.04,-0.56zm4.41 -5.32l0.57 0c0.34,0.02 0.67,0.07 1.01,0.15 0.18,0.04 0.33,0.09 0.49,0.15 0.42,0.15 0.92,0.41 1.27,0.66 1.04,0.75 1.79,1.81 2.1,3.07 0.09,0.35 0.14,0.71 0.15,1.07l0 0.41c-0.02,0.55 -0.12,1.09 -0.3,1.6 -0.06,0.16 -0.12,0.31 -0.19,0.46 -0.62,1.23 -1.35,1.97 -2.59,2.58 -0.62,0.31 -1.39,0.47 -2.16,0.48l-0.16 0c-0.77,-0.01 -1.54,-0.17 -2.17,-0.49 -1.23,-0.62 -1.97,-1.35 -2.58,-2.59 -0.37,-0.74 -0.48,-1.54 -0.48,-2.38 0,-1 0.39,-2.12 0.96,-2.92 0.98,-1.35 2.47,-2.17 4.07,-2.25z"/>
   <path class="fil0" d="M5.32 8.64c0.49,0 0.9,-0.12 1.26,-0.25 0.26,-0.1 0.74,-0.39 0.94,-0.59l0.14 -0.13c0.02,-0.02 0.03,-0.03 0.05,-0.05 0.32,-0.33 0.6,-0.75 0.74,-1.19 0.11,-0.34 -0.42,-0.66 -0.63,-0.13 -0.06,0.15 -0.11,0.26 -0.19,0.39l-0.24 0.34c-0.18,0.22 -0.38,0.4 -0.62,0.56 -0.93,0.6 -2.17,0.56 -3.05,-0.1 -0.17,-0.13 -0.33,-0.26 -0.46,-0.43 -0.13,-0.16 -0.13,-0.15 -0.25,-0.35 -0.21,-0.36 -0.23,-0.69 -0.52,-0.69 -0.21,0 -0.37,0.2 -0.31,0.39 0.05,0.17 0.16,0.38 0.24,0.53 0.16,0.29 0.36,0.54 0.59,0.76l0.04 0.04c0.02,0.02 0.03,0.03 0.05,0.05 0.52,0.52 1.45,0.86 2.22,0.86z"/>
   <path class="fil0" d="M1.99 4.3c0,0.37 0.49,0.45 0.61,0.14 0.04,-0.09 0.02,-0.8 0.71,-0.8 0.28,0 0.51,0.19 0.61,0.39 0.07,0.15 0.04,0.27 0.09,0.41 0.11,0.31 0.61,0.26 0.61,-0.13 0,-0.64 -0.45,-1.12 -1.02,-1.27 -0.43,-0.11 -0.9,0.04 -1.22,0.34 -0.23,0.21 -0.4,0.6 -0.4,0.93z"/>
   <path class="fil0" d="M6 4.3c0,0.39 0.5,0.44 0.61,0.13 0.05,-0.14 0.02,-0.26 0.09,-0.41 0.23,-0.47 0.95,-0.57 1.23,0.01 0.08,0.16 0.03,0.26 0.09,0.41 0.12,0.32 0.89,0.33 0.5,-0.65 -0.05,-0.12 -0.18,-0.31 -0.27,-0.4 -0.04,-0.04 -0.05,-0.04 -0.09,-0.08 -0.1,-0.08 -0.17,-0.14 -0.3,-0.2 -0.96,-0.41 -1.87,0.3 -1.87,1.18z"/>
  </g>
 </g>
</svg>
